<?xml version="1.0" encoding="utf-8"?>
<!-- Generator: Adobe Illustrator 25.0.1, SVG Export Plug-In . SVG Version: 6.00 Build 0)  -->
<svg version="1.1" id="Layer_1" xmlns="http://www.w3.org/2000/svg" xmlns:xlink="http://www.w3.org/1999/xlink" x="0px" y="0px"
	 viewBox="0 0 336 274" style="enable-background:new 0 0 336 274;" xml:space="preserve">
<style type="text/css">
	.st0{fill:#FFFFFF;}
</style>
<g>
	<path class="st0" d="M170.7,18c21.1,0,38.2,17.1,38.2,38.2c0,14.6-8.2,27.8-21.3,34.2l-16.9,8.4l-16.9-8.4
		c-13.1-6.5-21.3-19.6-21.3-34.2C132.5,35.1,149.7,18,170.7,18 M207.6,103.7c3.4,0,6.5,1.5,8.7,3.8c-8.5,4.3-14.4,13.1-14.4,23.1
		v103.6h-62.4V130.7c0-10.3-6-19.2-14.8-23.3c2.2-2.2,5.2-3.6,8.5-3.6h17.5h30h10H207.6 M170.7,11c-25,0-45.2,20.2-45.2,45.2
		c0,17.8,10.3,33.1,25.2,40.5h-17.5c-9.1,0-16.8,6.5-18.4,15.2c9.9,0.6,17.7,8.7,17.7,18.8v110.6h76.4V130.7
		c0-9.8,7.5-17.9,17.1-18.7c-1.7-8.7-9.3-15.2-18.5-15.2h-16.9c14.9-7.4,25.2-22.7,25.2-40.5C215.9,31.2,195.7,11,170.7,11L170.7,11
		z"/>
</g>
<g>
	<path class="st0" d="M273.3,40.7c21.1,0,38.2,17.1,38.2,38.2c0,14.6-8.2,27.8-21.3,34.2l-16.9,8.4l-16.9-8.4
		c-13.1-6.5-21.3-19.6-21.3-34.2C235.1,57.9,252.3,40.7,273.3,40.7 M310.2,126.4c6.5,0,11.8,5.3,11.8,11.8V257h-97.9V138.2
		c0-6.5,5.3-11.8,11.8-11.8h17.5h30h10H310.2 M273.3,33.7c-25,0-45.2,20.2-45.2,45.2c0,17.8,10.3,33.1,25.2,40.5h-17.5
		c-10.4,0-18.8,8.4-18.8,18.8V264H329V138.2c0-10.4-8.4-18.8-18.8-18.8h-16.9c14.9-7.4,25.2-22.7,25.2-40.5
		C318.5,54,298.3,33.7,273.3,33.7L273.3,33.7z"/>
</g>
<g>
	<path class="st0" d="M69.3,41.9c21.1,0,38.2,17.1,38.2,38.2c0,14.6-8.2,27.8-21.3,34.2l-16.9,8.4l-16.9-8.4
		c-13.1-6.5-21.3-19.6-21.3-34.2C31.1,59,48.2,41.9,69.3,41.9 M106.1,127.6c6.5,0,11.8,5.3,11.8,11.8v118.8H20V139.4
		c0-6.5,5.3-11.8,11.8-11.8h17.5h30h10H106.1 M69.3,34.9c-25,0-45.2,20.2-45.2,45.2c0,17.8,10.3,33.1,25.2,40.5H31.8
		c-10.4,0-18.8,8.4-18.8,18.8v125.8h111.9V139.4c0-10.4-8.4-18.8-18.8-18.8H89.3c14.9-7.4,25.2-22.7,25.2-40.5
		C114.4,55.1,94.2,34.9,69.3,34.9L69.3,34.9z"/>
</g>
</svg>
