<?xml version="1.0" encoding="utf-8"?>
<!-- Generator: Adobe Illustrator 25.0.1, SVG Export Plug-In . SVG Version: 6.00 Build 0)  -->
<svg version="1.1" id="Layer_1" xmlns="http://www.w3.org/2000/svg" xmlns:xlink="http://www.w3.org/1999/xlink" x="0px" y="0px"
	 viewBox="0 0 413 408" style="enable-background:new 0 0 413 408;" xml:space="preserve">
<style type="text/css">
	.st0{fill:#FFFFFF;}
	.st1{fill:none;stroke:#FFFFFF;stroke-width:7;stroke-miterlimit:10;}
	.st2{fill:none;stroke:#FFFFFF;stroke-width:7;stroke-linecap:round;stroke-miterlimit:10;}
	.st3{fill:#0049A3;stroke:#FFFFFF;stroke-width:7;stroke-miterlimit:10;}
</style>
<g>
	<path class="st0" d="M108.9,33.7C99.1,54.8,94,78,94,101.5C94,190.6,166.4,263,255.5,263c9,0,18-0.7,26.9-2.2
		c-11.7,14.8-26.2,27.4-42.6,36.8c-22.2,12.7-47.5,19.4-73.2,19.4c-39.4,0-76.4-15.3-104.3-43.2C34.3,245.9,19,208.9,19,169.5
		c0-32.6,10.4-63.6,30.2-89.4C64.7,59.7,85.5,43.7,108.9,33.7 M123.6,21C59.1,39.6,12,99.1,12,169.5C12,254.8,81.2,324,166.5,324
		c55.9,0,104.8-29.6,131.9-74c-13.6,3.9-28,6-42.9,6C170.2,256,101,186.8,101,101.5C101,72,109.3,44.5,123.6,21L123.6,21z"/>
</g>
<g>
	<path class="st0" d="M57.3,298c19.9,26.1,51.5,41.6,85.8,41.6c9,0,18.1-1.1,27-3.3c0.3-0.1,0.6-0.2,1-0.2
		c4.4,22.2-4.7,45.6-24.2,61.9H40.5c-8.3-7.9-14.1-17.8-16.7-28.6C17.3,342.7,31,314.1,57.3,298 M59.3,288.8
		C27.4,305.3,9.1,338.7,17,371.1c3.3,13.5,10.7,25,20.8,33.9h111.6c22.8-18,34.6-45.8,27.9-73c-0.4-1.6-0.8-3.1-1.3-4.6
		c-2.5,0.8-5,1.5-7.5,2.1c-8.5,2.1-17,3.1-25.4,3.1C108.9,332.6,77.3,315.9,59.3,288.8L59.3,288.8z"/>
</g>
<g>
	<path class="st1" d="M298.5,249.5c0-126-78.3-228-175-228"/>
</g>
<line class="st2" x1="227" y1="114.7" x2="132" y2="124"/>
<line class="st2" x1="385.9" y1="21.9" x2="305.1" y2="72.8"/>
<line class="st2" x1="228" y1="130.6" x2="200" y2="197"/>
<circle class="st3" cx="245.6" cy="111.8" r="51.5"/>
</svg>
