<?xml version="1.0" encoding="utf-8"?>
<!-- Generator: Adobe Illustrator 25.0.1, SVG Export Plug-In . SVG Version: 6.00 Build 0)  -->
<svg version="1.1" id="Layer_1" xmlns="http://www.w3.org/2000/svg" xmlns:xlink="http://www.w3.org/1999/xlink" x="0px" y="0px"
	 viewBox="0 0 413 408" style="enable-background:new 0 0 413 408;" xml:space="preserve">
<style type="text/css">
	.st0{fill:#FFFFFF;}
	.st1{fill:#0049A3;}
	.st2{fill:none;stroke:#FFFFFF;stroke-miterlimit:10;}
	.st3{fill:none;stroke:#FFFFFF;stroke-width:10;stroke-linecap:round;stroke-miterlimit:10;}
	.st4{fill:#FFFFFF;stroke:#0049A3;stroke-miterlimit:10;}
</style>
<g>
	<path class="st0" d="M166.5,323.5c-84.9,0-154-69.1-154-154c0-34.1,10.9-66.4,31.5-93.4c19.7-25.8,47.5-45,78.5-54.3
		c-14.4,24-22,51.5-22,79.6c0,85.5,69.5,155,155,155c14.2,0,28.3-1.9,41.8-5.7c-13.5,21.6-32.2,39.7-54.3,52.4
		C219.8,316.5,193.4,323.5,166.5,323.5z"/>
	<path class="st1" d="M121.4,22.7c-14,23.8-21.4,51-21.4,78.8c0,85.7,69.8,155.5,155.5,155.5c13.8,0,27.5-1.8,40.7-5.4
		c-13.4,21.1-31.8,38.7-53.5,51.2C219.6,316,193.3,323,166.5,323c-41,0-79.5-16-108.5-45s-45-67.5-45-108.5
		c0-34,10.9-66.1,31.4-93.1C63.8,51.1,91.1,32.1,121.4,22.7 M123.6,21C59.1,39.6,12,99.1,12,169.5C12,254.8,81.2,324,166.5,324
		c55.9,0,104.8-29.6,131.9-74c-13.6,3.9-28,6-42.9,6C170.2,256,101,186.8,101,101.5C101,72,109.3,44.5,123.6,21L123.6,21z"/>
</g>
<g>
	<path class="st0" d="M38,404.5c-10.3-9.1-17.3-20.7-20.5-33.5c-7.6-31.2,9.5-64.7,41.6-81.5c18.3,27.3,49.7,43.6,83.9,43.6
		c8.5,0,17.1-1,25.5-3.1c2.3-0.6,4.7-1.2,7.1-2c0.5,1.5,0.9,2.8,1.2,4.1c6.4,26.1-4.2,53.8-27.6,72.4H38z"/>
	<path class="st1" d="M59,290.1c18.5,27.2,49.8,43.5,84.1,43.5c8.6,0,17.2-1,25.6-3.1c2.2-0.5,4.4-1.2,6.7-1.9
		c0.4,1.3,0.7,2.5,1,3.6c6.3,25.9-4.2,53.3-27.3,71.8H38.2c-10.1-9-17.1-20.4-20.2-33.1C10.5,340,27.3,306.9,59,290.1 M59.3,288.8
		C27.4,305.3,9.1,338.7,17,371.1c3.3,13.5,10.7,25,20.8,33.9h111.6c22.8-18,34.6-45.8,27.9-73c-0.4-1.6-0.8-3.1-1.3-4.6
		c-2.5,0.8-5,1.5-7.5,2.1c-8.5,2.1-17,3.1-25.4,3.1C108.9,332.6,77.3,315.9,59.3,288.8L59.3,288.8z"/>
</g>
<g>
	<path class="st2" d="M298.5,249.5c0-126-78.3-228-175-228"/>
</g>
<line class="st3" x1="227" y1="114.7" x2="132" y2="124"/>
<line class="st3" x1="382.9" y1="25.9" x2="302.1" y2="76.8"/>
<line class="st3" x1="228" y1="130.6" x2="200" y2="197"/>
<circle class="st4" cx="245.6" cy="111.8" r="51.5"/>
</svg>
