<?xml version="1.0" encoding="utf-8"?>
<!-- Generator: Adobe Illustrator 25.0.1, SVG Export Plug-In . SVG Version: 6.00 Build 0)  -->
<svg version="1.1" id="Layer_1" xmlns="http://www.w3.org/2000/svg" xmlns:xlink="http://www.w3.org/1999/xlink" x="0px" y="0px"
	 viewBox="0 0 265 262" style="enable-background:new 0 0 265 262;" xml:space="preserve">
<style type="text/css">
	.st0{fill:#FFFFFF;}
	.st1{fill:none;stroke:#FFFFFF;stroke-width:7;stroke-miterlimit:10;}
</style>
<g>
	<path class="st0" d="M133,12c31.5,0,61.2,12.3,83.4,34.6S251,98.5,251,130s-12.3,61.2-34.6,83.4S164.5,248,133,248
		s-61.2-12.3-83.4-34.6S15,161.5,15,130s12.3-61.2,34.6-83.4S101.5,12,133,12 M133,5C64,5,8,61,8,130s56,125,125,125s125-56,125-125
		S202,5,133,5L133,5z"/>
</g>
<g>
	<path class="st0" d="M128.3,2.7v7c4.9,0,9.3,0.6,12.9,1.9C166.4,20.3,184,69,184,130s-17.6,109.7-42.7,118.4c-3.7,1.3-8,1.9-13,1.9
		c-22.5,0-51.9-13.1-74.9-33.3C26.1,192.9,11,162,11,130c0-32,15.1-62.9,42.5-87c23-20.2,52.3-33.3,74.9-33.3L128.3,2.7 M128.3,2.7
		C82.1,2.7,4,53.6,4,130c0,76.4,78.1,127.3,124.3,127.3c5.6,0,10.8-0.8,15.3-2.3c63.2-22,63.2-228,0-250
		C139.1,3.4,134,2.7,128.3,2.7L128.3,2.7z"/>
</g>
<g>
	<path class="st0" d="M136.7,9.7c22.5,0,51.9,13.1,74.9,33.3c27.4,24.1,42.5,55,42.5,87c0,32-15.1,62.9-42.5,87
		c-23,20.2-52.3,33.3-74.9,33.3c-4.9,0-9.3-0.6-13-1.9C98.6,239.7,81,191,81,130S98.6,20.3,123.7,11.6
		C127.4,10.3,131.7,9.7,136.7,9.7L136.7,9.7 M136.7,2.7c-5.6,0-10.8,0.8-15.3,2.3c-63.2,22-63.2,228,0,250c4.5,1.6,9.6,2.3,15.3,2.3
		c46.2,0,124.3-51,124.3-127.3C261,53.6,182.9,2.7,136.7,2.7L136.7,2.7z"/>
</g>
<path class="st1" d="M226.6,202c-56.7-50.8-140.1-50.2-186.4,1.5"/>
<path class="st1" d="M39.1,52.9c52.5,47,131.5,44.2,176.8-6.3"/>
</svg>
