<?xml version="1.0" encoding="utf-8"?>
<!-- Generator: Adobe Illustrator 25.0.1, SVG Export Plug-In . SVG Version: 6.00 Build 0)  -->
<svg version="1.1" id="Layer_1" xmlns="http://www.w3.org/2000/svg" xmlns:xlink="http://www.w3.org/1999/xlink" x="0px" y="0px"
	 viewBox="0 0 468 380" style="enable-background:new 0 0 468 380;" xml:space="preserve">
<style type="text/css">
	.st0{fill:#FFFFFF;}
	.st1{fill:#FFFFFF;stroke:#000000;stroke-width:4;stroke-miterlimit:10;}
</style>
<g>
	
		<rect x="-152.6" y="179.2" transform="matrix(6.632037e-03 -1 1 6.632037e-03 -159.4733 216.8957)" class="st0" width="364" height="19"/>
	<path d="M23.1,8.7l15,0.1l-2.4,360l-15-0.1L23.1,8.7 M19.2,4.6l-2.4,368l23,0.2l2.4-368L19.2,4.6L19.2,4.6z"/>
</g>
<g>
	
		<rect x="-133.6" y="179.4" transform="matrix(6.632037e-03 -1 1 6.632037e-03 -140.7456 236.0397)" class="st0" width="364" height="19"/>
	<path d="M42.1,8.8l15,0.1l-2.4,360l-15-0.1L42.1,8.8 M38.2,4.8l-2.4,368l23,0.2l2.4-368L38.2,4.8L38.2,4.8z"/>
</g>
<g>
	
		<rect x="-114.6" y="179.5" transform="matrix(6.632027e-03 -1 1 6.632027e-03 -122.0181 255.1839)" class="st0" width="364" height="19"/>
	<path d="M61.1,9l15,0.1l-2.4,360l-15-0.1L61.1,9 M57.2,4.9l-2.4,368l23,0.2l2.4-368L57.2,4.9L57.2,4.9z"/>
</g>
<g>
	
		<rect x="-95.6" y="179.7" transform="matrix(6.632037e-03 -1 1 6.632037e-03 -103.2902 274.3276)" class="st0" width="364" height="19"/>
	<path d="M80.1,9.1l15,0.1l-2.4,360l-15-0.1L80.1,9.1 M76.2,5.1l-2.4,368l23,0.2l2.4-368L76.2,5.1L76.2,5.1z"/>
</g>
<g>
	
		<rect x="197.6" y="179.3" transform="matrix(6.632037e-03 -1 1 6.632037e-03 188.2082 567.1551)" class="st0" width="364" height="19"/>
	<path d="M373.3,8.8l15,0.1l-2.4,360l-15-0.1L373.3,8.8 M369.3,4.8l-2.4,368l23,0.2l2.4-368L369.3,4.8L369.3,4.8z"/>
</g>
<g>
	
		<rect x="217.6" y="179.5" transform="matrix(6.632027e-03 -1 1 6.632027e-03 207.9292 587.2991)" class="st0" width="364" height="19"/>
	<path d="M393.3,8.9l15,0.1l-2.4,360l-15-0.1L393.3,8.9 M389.3,4.9l-2.4,368l23,0.2l2.4-368L389.3,4.9L389.3,4.9z"/>
</g>
<g>
	
		<rect x="237.6" y="179.6" transform="matrix(6.629353e-03 -1 1 6.629353e-03 227.6512 607.4432)" class="st0" width="364" height="19"/>
	<path d="M413.3,9.1l15,0.1l-2.4,360l-15-0.1L413.3,9.1 M409.3,5.1l-2.4,368l23,0.2l2.4-368L409.3,5.1L409.3,5.1z"/>
</g>
<g>
	
		<rect x="257.6" y="179.8" transform="matrix(6.629345e-03 -1 1 6.629345e-03 247.3719 627.5876)" class="st0" width="364" height="19"/>
	<path d="M433.3,9.2l15,0.1l-2.4,360l-15-0.1L433.3,9.2 M429.3,5.2l-2.4,368l23,0.2l2.4-368L429.3,5.2L429.3,5.2z"/>
</g>
<g>
	<path class="st1" d="M327.5,80.4c0.3-1,0.5-2,0.5-2.9c0-15.7-42.3-28.5-94.5-28.5S139,61.8,139,77.5h188.5V80.4z"/>
	<path class="st1" d="M327.5,80.4C322.6,94.8,139,93.2,139,77.5h-0.5v194h0.5c0,15.7,42.3,28.5,94.5,28.5s94.5-12.8,94.5-28.5
		c0-1-0.2-2-0.5-2.9V80.4z"/>
</g>
<g>
	<path class="st0" d="M146,89.4c-2.6-4-4.1-8.6-4.4-13.3c1,1.8,1.9,3.7,2.9,5.5c1.1-2.2,1.9-4.5,2.4-6.8c0.3,2.9,0.6,5.7,0.9,8.6
		c0.7-2.4,0.7-5-0.1-7.4c-1.2,3.1-1.5,6.4-1,9.6c1.3-3.1,2.6-6.1,3.9-9.2c0.4,1.7-0.9,3.7-2.6,4c-1.8,0.2-3.5-1.7-2.9-3.4
		c4,2.5,9.8,1.6,12.7-2c-0.5,3-1.5,5.9-2.9,8.6c-1.5-2.4-2.4-5.3-2.4-8.2c-1.5,3.2-2.5,6.6-2.9,10.1c1.6-3.9,3.8-7.5,6.3-10.9
		c-1.5,3.3-3,6.6-4.6,9.9c2.8-6.6,7.9-12.2,14.2-15.6c-0.3,7.1-2.8,14.1-7.1,19.7c-0.3-6.1,0.8-12.3,3.1-18
		c-4.8,4.9-8.8,10.5-11.9,16.6c3.9-4.3,7.8-8.6,11.7-12.9c-2.2,6.2-5.6,12-9.8,17c4-7.2,8.9-13.9,14.7-19.8
		c-1.4,6.2-4.3,12.2-8.4,17c3.1-5.3,7.6-9.9,13.2-12.5c5.6-2.6,12.3-3,17.8-0.4c-5.9,1-11.8,1.6-17.7,2c29.6,0.6,59.2-0.2,88.6-2.5
		c-6.5,1.7-13.3,2.4-20,3.1c27.9-0.4,55.7-0.8,83.6-1.2"/>
	<g>
		<path class="st0" d="M147.3,88.7c-2.4-3.8-3.9-8.1-4.2-12.6c-0.9,0.3-1.9,0.5-2.8,0.8c1,1.8,1.9,3.7,2.9,5.5c0.5,1,2.1,1,2.6,0
			c1.1-2.3,2-4.7,2.6-7.2c-1-0.1-2-0.3-2.9-0.4c0.3,2.9,0.6,5.7,0.9,8.6c0.2,1.6,2.5,2.1,2.9,0.4c0.7-2.7,0.7-5.5-0.1-8.2
			c-0.4-1.5-2.4-1.3-2.9,0c-1.2,3.4-1.5,6.9-1,10.4c0.2,1.2,2.3,1.5,2.7,0.4c1.3-3.1,2.6-6.1,3.9-9.2c-0.9-0.1-1.8-0.2-2.7-0.4
			c0.1,0.8-0.4,1.8-1.2,2c-0.9,0.2-1.7-0.7-1.4-1.5c-0.7,0.3-1.5,0.6-2.2,0.9c4.6,2.8,11,1.9,14.6-2.2c-0.8-0.5-1.7-1-2.5-1.5
			c-0.5,2.9-1.4,5.7-2.7,8.3c0.9,0,1.7,0,2.6,0c-1.4-2.3-2.2-4.8-2.2-7.4c0-1.4-2.1-2.2-2.8-0.8c-1.7,3.4-2.7,7.1-3.1,10.9
			c-0.2,1.4,2.2,2.1,2.8,0.8c1.7-3.9,3.8-7.5,6.3-10.9c-0.9-0.5-1.7-1-2.6-1.5c-1.5,3.3-3,6.6-4.6,9.9c0.9,0.5,1.7,1,2.6,1.5
			c2.8-6.4,7.5-11.7,13.7-15.1c-0.8-0.4-1.5-0.9-2.3-1.3c-0.3,6.9-2.8,13.4-6.9,18.9c0.9,0.3,1.9,0.5,2.8,0.8
			c-0.2-6,0.8-12,3.1-17.6c0.6-1.4-1.5-2.5-2.5-1.5c-4.9,5-9,10.7-12.1,16.9c-0.7,1.4,1.1,3.1,2.4,1.8c3.9-4.3,7.8-8.6,11.7-12.9
			c-0.8-0.5-1.7-1-2.5-1.5c-2.2,5.9-5.4,11.5-9.4,16.3c0.8,0.6,1.6,1.2,2.4,1.8c4-7.1,8.8-13.7,14.5-19.5c-0.8-0.5-1.7-1-2.5-1.5
			c-1.3,6-4,11.6-8,16.4c0.8,0.6,1.6,1.2,2.4,1.8c2.8-4.8,6.7-9,11.7-11.5c5.2-2.7,11.8-3.3,17.2-0.8c0.1-0.9,0.2-1.8,0.4-2.7
			c-5.7,1-11.5,1.6-17.3,1.9c-1.9,0.1-1.9,3,0,3c23,0.5,46.1,0.1,69.1-1.2c6.5-0.4,13-0.8,19.5-1.3c-0.1-1-0.3-2-0.4-2.9
			c-6.4,1.6-13,2.3-19.6,3c-1.9,0.2-2,3,0,3c21.7-0.3,43.5-0.6,65.2-0.9c6.1-0.1,12.3-0.2,18.4-0.3c1.9,0,1.9-3,0-3
			c-21.7,0.3-43.5,0.6-65.2,0.9c-6.1,0.1-12.3,0.2-18.4,0.3c0,1,0,2,0,3c6.8-0.7,13.7-1.5,20.4-3.2c1.6-0.4,1.3-3.1-0.4-2.9
			c-23,1.8-46,2.7-69.1,2.7c-6.5,0-13.1-0.1-19.6-0.2c0,1,0,2,0,3c6.1-0.3,12.1-1,18.1-2c1.2-0.2,1.5-2.2,0.4-2.7
			c-6.3-2.8-13.4-2.4-19.5,0.5c-5.7,2.7-10.3,7.5-13.5,12.9c-0.8,1.4,1.2,3.2,2.4,1.8c4.3-5.1,7.3-11.2,8.8-17.7
			c0.3-1.4-1.4-2.6-2.5-1.5c-5.8,6-10.9,12.8-14.9,20.1c-0.8,1.4,1.2,3.2,2.4,1.8c4.4-5.3,7.9-11.2,10.2-17.7
			c0.5-1.4-1.5-2.5-2.5-1.5c-3.9,4.3-7.8,8.6-11.7,12.9c0.8,0.6,1.6,1.2,2.4,1.8c3-6,6.9-11.5,11.6-16.3c-0.8-0.5-1.7-1-2.5-1.5
			c-2.3,5.8-3.4,12.1-3.2,18.4c0.1,1.6,1.9,1.9,2.8,0.8c4.5-5.9,7-13.1,7.3-20.4c0.1-1.2-1.3-1.8-2.3-1.3
			c-6.6,3.6-11.8,9.3-14.8,16.2c-0.7,1.7,1.8,3.3,2.6,1.5c1.5-3.3,3-6.6,4.6-9.9c0.8-1.8-1.4-3-2.6-1.5c-2.6,3.4-4.7,7-6.3,10.9
			c0.9,0.3,1.9,0.5,2.8,0.8c0.4-3.2,1.3-6.4,2.7-9.3c-0.9-0.3-1.9-0.5-2.8-0.8c0.1,3.2,1,6.2,2.7,8.9c0.6,0.9,2.1,1,2.6,0
			c1.4-2.9,2.4-5.9,3-9c0.3-1.3-1.4-2.7-2.5-1.5c-2.7,3.1-7.4,3.9-10.9,1.8c-0.8-0.5-1.9,0-2.2,0.9c-0.8,2.8,1.7,5.6,4.5,5.3
			c2.8-0.3,4.3-3.2,3.9-5.8c-0.2-1.2-2.2-1.5-2.7-0.4c-1.3,3.1-2.6,6.1-3.9,9.2c0.9,0.1,1.8,0.2,2.7,0.4c-0.4-3,0-6,1-8.8
			c-1,0-1.9,0-2.9,0c0.6,2.2,0.6,4.4,0.1,6.6c1,0.1,2,0.3,2.9,0.4c-0.3-2.9-0.6-5.7-0.9-8.6c-0.2-1.6-2.5-2.2-2.9-0.4
			c-0.5,2.3-1.3,4.4-2.3,6.5c0.9,0,1.7,0,2.6,0c-1-1.8-1.9-3.7-2.9-5.5c-0.7-1.3-2.9-0.7-2.8,0.8c0.4,5,1.9,9.8,4.6,14.1
			C145.7,91.8,148.3,90.3,147.3,88.7L147.3,88.7z"/>
	</g>
</g>
<g>
	<path class="st0" d="M159.8,84.8c6.2,4.3,14.2,5.7,21.5,3.7c-4.6,0.5-9.2,0.1-13.7-1c-3.1-0.8-6.2-2-9.4-1.7
		c-3.7,0.3-7.4,2.5-11,1.5c-3-0.9-4.8-3.8-6.1-6.6c-0.5-1-0.7-2.6,0.3-2.9"/>
	<g>
		<path class="st0" d="M159,86.1c6.6,4.5,14.9,5.9,22.6,3.8c1.6-0.4,1.3-3.1-0.4-2.9c-4.1,0.4-8.3,0.2-12.4-0.7
			c-3.8-0.9-7.5-2.5-11.5-1.9c-3.3,0.4-7.2,2.7-10.4,1.2c-1.5-0.7-2.5-2-3.3-3.3c-0.4-0.6-0.8-1.3-1.1-2c-0.1-0.3-0.3-0.5-0.3-0.8
			c0-0.2-0.1-0.3-0.1-0.5c0-0.2,0-0.2,0,0.1c1.7-0.9,0.2-3.5-1.5-2.6c-3.6,1.8,0.1,7.2,1.7,9.2c1.3,1.5,2.9,2.8,4.9,3.2
			c2,0.5,4.1,0.1,6-0.4c2.1-0.5,4.1-1.2,6.3-1.2c2.5,0.1,4.8,1,7.2,1.6c4.7,1.3,9.7,1.7,14.5,1.2c-0.1-1-0.3-2-0.4-2.9
			c-6.9,1.8-14.4,0.5-20.3-3.5C158.9,82.4,157.4,85,159,86.1L159,86.1z"/>
	</g>
</g>
<g>
	<path class="st0" d="M161,82.2c-0.3,0-0.6,0-0.9,0"/>
	<g>
		<path class="st0" d="M161,80.7c-0.3,0-0.6,0-0.9,0c-0.2,0-0.4,0-0.6,0.1c-0.2,0.1-0.3,0.2-0.5,0.3c-0.1,0.1-0.2,0.3-0.3,0.5
			c-0.1,0.2-0.1,0.4-0.1,0.6c0,0.1,0,0.3,0.1,0.4c0.1,0.3,0.2,0.5,0.4,0.7c0.1,0.1,0.2,0.2,0.3,0.2c0.2,0.1,0.5,0.2,0.8,0.2
			c0.3,0,0.6,0,0.9,0c0.2,0,0.4,0,0.6-0.1c0.2-0.1,0.3-0.2,0.5-0.3c0.1-0.1,0.2-0.3,0.3-0.5c0.1-0.2,0.1-0.4,0.1-0.6
			c0-0.1,0-0.3-0.1-0.4c-0.1-0.3-0.2-0.5-0.4-0.7c-0.1-0.1-0.2-0.2-0.3-0.2C161.6,80.8,161.3,80.7,161,80.7L161,80.7z"/>
	</g>
</g>
<g>
	<path class="st0" d="M198.2,105.3"/>
	<g>
		<path class="st0" d="M198.2,106.8c1.9,0,1.9-3,0-3C196.3,103.8,196.3,106.8,198.2,106.8L198.2,106.8z"/>
	</g>
</g>
<g>
	<path class="st0" d="M168.7,83.1c6.3,4.4,13.9,6.8,21.6,6.9c-8.1-1.6-16.2-3.5-24.3-5.5c11.2,4.9,24.1,5.9,35.9,2.7
		c-4.3,0.2-8.6,0.4-12.9,0.6c17,1.2,34,1.4,51,0.6c-9.5,1.3-19.1,2.2-28.7,2.6c12.2-3.1,25.1-2.6,37.7-1.5
		c-6.5,0.4-13.1,0.7-19.6,1.1c15.8,2.6,32-1.8,48-1.9c12.5-0.1,25.5,2.3,37.1-2.4c-5.1-0.4-10.3,0.2-15.2,1.5
		c8.9-0.2,17.7-1.8,26-4.8c-1.2-1.5-1.6-3.7-0.8-5.5"/>
	<g>
		<path class="st0" d="M168,84.4c6.6,4.5,14.4,7,22.4,7.1c1.7,0,2.1-2.6,0.4-2.9c-8.1-1.7-16.2-3.5-24.3-5.5c-1.6-0.4-2.8,2-1.2,2.7
			c11.7,5.1,24.8,6.1,37.1,2.9c1.6-0.4,1.3-3-0.4-2.9c-4.3,0.2-8.6,0.4-12.9,0.6c-1.9,0.1-1.9,2.9,0,3c17,1.2,34,1.4,51,0.6
			c-0.1-1-0.3-2-0.4-2.9c-9.4,1.3-18.9,2.1-28.3,2.5c0.1,1,0.3,2,0.4,2.9c12.2-3.1,24.9-2.5,37.3-1.5c0-1,0-2,0-3
			c-6.5,0.4-13.1,0.7-19.6,1.1c-1.6,0.1-2.2,2.7-0.4,2.9c11.5,1.9,23.1,0.2,34.6-1c5.7-0.6,11.4-1,17.2-0.9c5.5,0.1,11,0.5,16.4,0.5
			c6,0,12.1-0.7,17.7-3c1.6-0.6,1.4-2.8-0.4-2.9c-5.3-0.4-10.6,0.2-15.6,1.6c-1.6,0.4-1.3,3,0.4,2.9c9-0.2,17.9-1.8,26.4-4.8
			c0.8-0.3,1.5-1.4,0.9-2.2c-1-1.3-1.3-2.8-0.7-4.4c0.7-1.8-2.2-2.6-2.9-0.8c-0.8,2.2-0.4,4.8,1,6.7c0.3-0.7,0.6-1.5,0.9-2.2
			c-8.2,2.9-16.9,4.5-25.6,4.7c0.1,1,0.3,2,0.4,2.9c4.9-1.3,9.8-1.8,14.8-1.5c-0.1-1-0.3-2-0.4-2.9c-10.1,4-21,2.7-31.6,2.4
			c-11.3-0.4-22.3,1.4-33.5,2.3c-6.4,0.5-12.9,0.6-19.2-0.4c-0.1,1-0.3,2-0.4,2.9c6.5-0.4,13.1-0.7,19.6-1.1c1.9-0.1,1.9-2.8,0-3
			c-12.7-1-25.6-1.5-38.1,1.6c-1.6,0.4-1.3,3,0.4,2.9c9.7-0.4,19.5-1.3,29.1-2.6c1.7-0.2,1.3-3-0.4-2.9c-17,0.8-34,0.6-51-0.6
			c0,1,0,2,0,3c4.3-0.2,8.6-0.4,12.9-0.6c-0.1-1-0.3-2-0.4-2.9c-11.5,3-23.9,2.2-34.7-2.6c-0.4,0.9-0.8,1.8-1.2,2.7
			c8,2,16.1,3.9,24.3,5.5c0.1-1,0.3-2,0.4-2.9c-7.5-0.2-14.7-2.5-20.8-6.7C167.9,80.7,166.4,83.3,168,84.4L168,84.4z"/>
	</g>
</g>
<g>
	<ellipse class="st0" cx="246.5" cy="152" rx="36" ry="32.5"/>
	<path d="M246.5,120c19.6,0,35.5,14.4,35.5,32s-15.9,32-35.5,32S211,169.6,211,152S226.9,120,246.5,120 M246.5,119
		c-20.2,0-36.5,14.8-36.5,33s16.3,33,36.5,33s36.5-14.8,36.5-33S266.7,119,246.5,119L246.5,119z"/>
</g>
<g>
	<rect x="96" y="154" class="st0" width="42" height="63"/>
	<path d="M136,156v59H98v-59H136 M140,152H94v67h46V152L140,152z"/>
</g>
<g>
	<rect x="328" y="154" class="st0" width="42" height="63"/>
	<path d="M368,156v59h-38v-59H368 M372,152h-46v67h46V152L372,152z"/>
</g>
<g>
	<g>
		<path class="st0" d="M165.3,78c32.8,0,65.6,0,98.4,0c16.5,0,33,0,49.4,0c2,0,4,0,6,0c0.7,0,1.3-0.1,1.5,0.7
			c0.2,0.9,0.3,1.8,0.4,2.7c0.1,1,0.3,1.9,0.4,2.9c0,0.3,0.2,0.8,0.1,1.1c-0.1,0.6,0.2,0.2-0.2,0.3c-0.7,0.1-1.6-0.3-2.3-0.3
			c-1-0.1-2.1-0.1-3.1,0c-3.8,0.4-7.3,1.7-10.9,2.7c-3.7,1-7.4,1.5-11.2,1.7c-8.8,0.3-17.6-0.9-26.4-1.1c-9.2-0.2-18.4,0.2-27.5,1.3
			c-1.9,0.2-1.9,2.8,0,3c7.8,1,15.6,1.4,23.5,1.3c1.9,0,1.9-3,0-3c-16.1,0-32.3-0.4-48.4-1.1c-8-0.3-16-0.7-23.9-1.1
			c-7.6-0.4-15.5-0.2-22.9-2.3c-4.1-1.2-7.8-3.2-11.4-5.3c-3.9-2.2-7.8-4.4-11.6-6.6c-1.7-1-3.2,1.6-1.5,2.6c3.6,2,7.2,4.1,10.8,6.1
			c3.2,1.8,6.5,3.7,9.9,5.1c7.2,2.8,15.1,2.9,22.8,3.2c16.3,0.8,32.6,1.6,48.9,2.1c9.1,0.3,18.3,0.4,27.5,0.4c0-1,0-2,0-3
			c-7.9,0.1-15.7-0.3-23.5-1.3c0,1,0,2,0,3c8.4-1,16.8-1.5,25.2-1.4c8.3,0.1,16.5,1.1,24.8,1.2c4.1,0,8.2-0.2,12.2-1
			c3.9-0.7,7.6-2.3,11.5-3.1c1.9-0.4,3.9-0.6,5.8-0.4c1.5,0.2,3,0.6,4.2-0.6c1.2-1.3,0.7-3.2,0.5-4.8c-0.2-1.8-0.3-3.9-0.8-5.6
			c-0.6-1.7-2-2.4-3.7-2.5c-2.1-0.1-4.2,0-6.3,0c-4.2,0-8.5,0-12.7,0c-8.6,0-17.1,0-25.7,0c-17.2,0-34.5,0-51.7,0
			c-17.1,0-34.3,0-51.4,0c-2.2,0-4.3,0-6.5,0C163.4,75,163.4,78,165.3,78L165.3,78z"/>
	</g>
</g>
<g>
	<g>
		<path class="st0" d="M273.4,91.8c-4.5,0.1-8.9-0.5-13.2-1.8c-1.9-0.5-2.7,2.4-0.8,2.9c4.6,1.3,9.3,1.9,14,1.9
			C275.4,94.8,275.4,91.8,273.4,91.8L273.4,91.8z"/>
	</g>
</g>
</svg>
