<?xml version="1.0" encoding="utf-8"?>
<!-- Generator: Adobe Illustrator 25.0.1, SVG Export Plug-In . SVG Version: 6.00 Build 0)  -->
<svg version="1.1" id="Layer_1" xmlns="http://www.w3.org/2000/svg" xmlns:xlink="http://www.w3.org/1999/xlink" x="0px" y="0px"
	 viewBox="0 0 468 380" style="enable-background:new 0 0 468 380;" xml:space="preserve">
<style type="text/css">
	.st0{fill:#FFFFFF;}
	.st1{fill:none;stroke:#FFFFFF;stroke-width:5;stroke-miterlimit:10;}
	.st2{fill:#0049A3;}
</style>
<g>
	<path class="st0" d="M24.1,9.7l13,0.1l-2.4,358l-13-0.1L24.1,9.7 M19.2,4.6l-2.4,368l23,0.2l2.4-368L19.2,4.6L19.2,4.6z"/>
</g>
<g>
	<path class="st0" d="M43.1,9.8l13,0.1l-2.4,358l-13-0.1L43.1,9.8 M38.2,4.8l-2.4,368l23,0.2l2.4-368L38.2,4.8L38.2,4.8z"/>
</g>
<g>
	<path class="st0" d="M62.1,10l13,0.1l-2.4,358l-13-0.1L62.1,10 M57.2,4.9l-2.4,368l23,0.2l2.4-368L57.2,4.9L57.2,4.9z"/>
</g>
<g>
	<path class="st0" d="M81.1,10.1l13,0.1l-2.4,358l-13-0.1L81.1,10.1 M76.2,5.1l-2.4,368l23,0.2l2.4-368L76.2,5.1L76.2,5.1z"/>
</g>
<g>
	<path class="st0" d="M374.3,9.8l13,0.1l-2.4,358l-13-0.1L374.3,9.8 M369.3,4.8l-2.4,368l23,0.2l2.4-368L369.3,4.8L369.3,4.8z"/>
</g>
<g>
	<path class="st0" d="M394.3,10l13,0.1l-2.4,358l-13-0.1L394.3,10 M389.3,4.9l-2.4,368l23,0.2l2.4-368L389.3,4.9L389.3,4.9z"/>
</g>
<g>
	<path class="st0" d="M414.3,10.1l13,0.1l-2.4,358l-13-0.1L414.3,10.1 M409.3,5.1l-2.4,368l23,0.2l2.4-368L409.3,5.1L409.3,5.1z"/>
</g>
<g>
	<path class="st0" d="M434.3,10.2l13,0.1l-2.4,358l-13-0.1L434.3,10.2 M429.3,5.2l-2.4,368l23,0.2l2.4-368L429.3,5.2L429.3,5.2z"/>
</g>
<g>
	<path class="st1" d="M327.5,80.4c0.3-1,0.5-2,0.5-2.9c0-15.7-42.3-28.5-94.5-28.5S139,61.8,139,77.5h188.5V80.4z"/>
	<path class="st1" d="M327.5,80.4C322.6,94.8,139,93.2,139,77.5h-0.5v194h0.5c0,15.7,42.3,28.5,94.5,28.5s94.5-12.8,94.5-28.5
		c0-1-0.2-2-0.5-2.9V80.4z"/>
</g>
<g>
	<ellipse class="st0" cx="246.5" cy="152" rx="34" ry="30.5"/>
	<path class="st0" d="M246.5,124c17.4,0,31.5,12.6,31.5,28s-14.1,28-31.5,28S215,167.4,215,152S229.1,124,246.5,124 M246.5,119
		c-20.2,0-36.5,14.8-36.5,33s16.3,33,36.5,33s36.5-14.8,36.5-33S266.7,119,246.5,119L246.5,119z"/>
</g>
<g>
	<path class="st0" d="M135,157v57H99v-57H135 M140,152H94v67h46V152L140,152z"/>
</g>
<g>
	<path class="st0" d="M367,157v57h-36v-57H367 M372,152h-46v67h46V152L372,152z"/>
</g>
<g>
	<g>
		<path class="st2" d="M153.4,70.5c-2.9,1.5-6,2.5-9.2,3c-1.2,0.2-1.4,1.8-0.7,2.5c7.4,7.6,19.1,8,29,8.9
			c12.8,1.1,25.6,1.7,38.5,1.8c25.7,0.3,51.4-1,77.1-2.7c7.2-0.5,14.5-1,21.7-1.5c3.1-0.2,6.4-0.2,9.5-0.9c2.4-0.5,4.5-1.8,5.4-4.2
			c0.2-0.5,0-1.1-0.4-1.5c-1.5-1.7-3.9-1.8-6.1-1.9c-2.9-0.1-5.8-0.1-8.7-0.2c-5.7-0.1-11.5-0.2-17.2-0.3c-11.5-0.2-23-0.3-34.5-0.4
			c-23.1-0.2-46.1-0.1-69.2,0.2c-13,0.2-26,0.4-39,0.7c-1.5,0-2,2-0.8,2.8c3.9,2.6,8.6,3.2,13.2,3.3c5.3,0.2,10.6,0.1,15.9,0.1
			c11.2,0,22.5,0.1,33.7,0.1c22.5,0.1,45,0.1,67.5-0.1c12.7-0.1,25.3-0.2,38-0.5c-0.3-0.9-0.5-1.9-0.8-2.8
			c-7.2,3.4-15.9,2.9-22.7-1.1c-0.1,0.9-0.2,1.8-0.4,2.7c8.9-1.3,18.1-0.4,26.7,2.5c0.7,0.2,1.3-0.2,1.7-0.7
			c1.7-2.5-0.8-5.2-3.3-5.5c-1.6-0.2-3.2-0.1-4.8-0.1c-1.8,0-3.6,0-5.5,0c-7,0-13.9,0-20.9,0c-13.9,0-27.9,0.4-41.8-0.1
			c-7.7-0.2-15.4-0.9-22.9-2.6c-1.9-0.4-2.7,2.4-0.8,2.9c1.9,0.5,3.8,1.1,5.7,1.6c0-1,0-1.9,0-2.9c-13.3,1.8-26.7,1.8-40,0
			c0.1,1,0.3,2,0.4,2.9c14.3-2,28.8-2,43.1-0.1c0-1,0-1.9,0-2.9c-10.7,2-21.8,2.3-32.6,0.9c-2.7-0.3-5.4-0.8-8-1.3
			c-2.6-0.5-5.1-1.3-7.7-1.7c-2.5-0.4-5-0.4-7.3,0.7c-2.2,1-4.1,2.4-6.5,3.1c-5.3,1.6-10.9,1.1-16.3,0.6c-1.9-0.2-1.9,2.8,0,3
			c4.9,0.4,9.8,0.8,14.7-0.1c2.3-0.4,4.5-1.2,6.6-2.3c1.1-0.6,2.1-1.3,3.2-1.8c1.3-0.5,2.7-0.6,4-0.4c2.7,0.3,5.4,1.2,8,1.7
			c2.6,0.5,5.2,1,7.9,1.3c5.5,0.7,11,1.1,16.5,1c6.1-0.1,12.3-0.7,18.3-1.8c1.4-0.3,1.5-2.7,0-2.9c-14.8-2.1-29.8-2-44.7,0.1
			c-0.7,0.1-1.2,1-1.1,1.6c0.1,0.8,0.7,1.2,1.5,1.3c13.6,1.8,27.2,1.7,40.8-0.1c1.5-0.2,1.3-2.5,0-2.9c-1.9-0.5-3.8-1.1-5.7-1.6
			c-0.3,1-0.5,1.9-0.8,2.9c12.5,2.9,25.3,2.9,38.1,2.9c13.1,0,26.2-0.1,39.3-0.1c3.6,0,7.3,0,10.9,0c1.8,0,3.6,0,5.5,0
			c0.5,0,4.4-0.2,3.5,1.1c0.6-0.2,1.1-0.5,1.7-0.7c-9.1-3.1-18.8-3.9-28.2-2.5c-1.3,0.2-1.4,2.1-0.4,2.7c7.8,4.6,17.6,5,25.7,1.1
			c1.4-0.7,0.7-2.8-0.8-2.8c-22.2,0.4-44.5,0.5-66.7,0.6c-22.2,0-44.5,0-66.7-0.1c-6.1,0-12.2,0-18.4-0.1c-5.1,0-10.5-0.1-15-3
			c-0.3,0.9-0.5,1.9-0.8,2.8c22.6-0.6,45.3-0.9,67.9-1c22.6-0.1,45.3,0,67.9,0.3c6.4,0.1,12.8,0.2,19.2,0.3c3.2,0.1,6.3,0.1,9.5,0.2
			c1.6,0,3.2,0.1,4.7,0.1c1.1,0,2.4,0,3.2,1c-0.1-0.5-0.3-1-0.4-1.5c-0.7,1.8-3.3,2.2-4.9,2.4c-3,0.3-6,0.4-9,0.7
			c-6.1,0.4-12.2,0.9-18.3,1.3c-12.3,0.8-24.7,1.6-37.1,2.1c-24.7,1-49.4,1.2-74-0.6c-6.2-0.5-12.4-0.8-18.5-1.9
			c-5.3-0.9-10.5-2.7-14.3-6.6c-0.2,0.8-0.4,1.7-0.7,2.5c3.5-0.5,6.8-1.7,9.9-3.3C156.6,72.2,155.1,69.6,153.4,70.5L153.4,70.5z"/>
	</g>
</g>
<g>
	<g>
		<path class="st2" d="M327.2,61.8c-0.5,2.7-0.4,5.5,0.5,8.1c0.3,0.7,1,1.3,1.8,1c0.7-0.2,1.3-1,1-1.8c-0.2-0.6-0.3-1.1-0.5-1.7
			c0-0.2-0.1-0.4-0.1-0.5c0-0.1-0.1-0.5,0-0.1c0-0.3-0.1-0.6-0.1-0.9c0-0.6,0-1.2,0-1.8c0-0.3,0-0.6,0.1-0.9c0,0.3,0-0.1,0-0.1
			c0-0.2,0.1-0.4,0.1-0.5c0.2-0.8-0.2-1.7-1-1.8C328.3,60.6,327.4,61,327.2,61.8L327.2,61.8z"/>
	</g>
</g>
</svg>
