<?xml version="1.0" encoding="utf-8"?>
<!-- Generator: Adobe Illustrator 25.0.1, SVG Export Plug-In . SVG Version: 6.00 Build 0)  -->
<svg version="1.1" id="Layer_1" xmlns="http://www.w3.org/2000/svg" xmlns:xlink="http://www.w3.org/1999/xlink" x="0px" y="0px"
	 viewBox="0 0 510 529" style="enable-background:new 0 0 510 529;" xml:space="preserve">
<style type="text/css">
	.st0{fill:#FFFFFF;}
	.st1{fill:#FFFFFF;stroke:#FFFFFF;stroke-width:7;stroke-miterlimit:10;}
</style>
<g>
	<path class="st0" d="M205.1,332.8c0.4,16-1,56.9-25.1,84.1c-24.1,27.2-64.6,33.5-80.5,35c-0.4-16,1-56.9,25.1-84.1
		C148.7,340.6,189.1,334.3,205.1,332.8 M211.6,325.4c0,0-59.5,0.8-92.3,37.8s-26.4,96.2-26.4,96.2s59.5-0.8,92.3-37.8
		S211.6,325.4,211.6,325.4L211.6,325.4z"/>
</g>
<g>
	<path class="st0" d="M119.7,428.4c-0.5-10.5-0.3-43.4,18.8-64.9c19.1-21.5,51.8-25.7,62.2-26.5c0.5,10.5,0.3,43.4-18.8,64.9
		C162.8,423.4,130.1,427.6,119.7,428.4z"/>
	<path class="st0" d="M197.3,340.8c0.1,12.6-1.6,40.3-18,58.8c-16.4,18.5-43.7,23.6-56.2,25c-0.2-12.6,1.6-40.2,18.1-58.8
		C157.5,347.2,184.7,342.1,197.3,340.8 M204,333.3c0,0-43.9,0.6-68.1,27.8c-24.2,27.3-19.5,70.9-19.5,70.9s43.9-0.6,68.1-27.8
		C208.7,376.9,204,333.3,204,333.3L204,333.3z"/>
</g>
<g>
	<path class="st0" d="M157,230.1L157,230.1c39.8,0,78.2,14.6,108.1,41c32.6,28.9,52,68.7,54.6,112.2c2.3,38.9-9,76.6-32.1,107.4
		c21.6-65.7,3-139.5-51-187.4c-32.4-28.7-74.1-44.5-117.3-44.5c-26.1,0-51.8,5.8-75.1,16.7c13.8-13.2,29.5-23.8,47.1-31.5
		C112,234.8,134.1,230.1,157,230.1 M157,223.1c-47,0-93.7,19.3-127.3,57.2c-6.4,7.3-12.1,14.9-17.1,22.9
		c30.8-24.9,68.7-37.5,106.6-37.5c40.1,0,80.3,14.1,112.7,42.8c63,55.8,74.7,148,31.6,217.1c7.3-5.9,14.3-12.5,20.7-19.7
		c62.3-70.3,55.8-177.7-14.5-240C237.3,237.2,197.1,223.1,157,223.1L157,223.1z"/>
</g>
<g>
	<path class="st0" d="M487.9,18.9c-1.2,14.2-4.6,44.3-14.1,81c-7.7,29.9-17.9,58.3-30.3,84.3c-15.4,32.4-34.2,61.3-56,85.8
		c-20.6,23.2-45.3,44.3-73.6,62.8c-21.8,14.2-45.7,26.9-71.3,37.7c-10.7-12.8-22.9-25.2-36.3-37c-12.3-10.9-25.1-20.8-38-29.5
		c7.7-26.6,17.5-51.8,28.9-75.1c14.9-30.2,32.8-57.2,53.3-80.3c21.7-24.5,48.1-46.7,78.5-65.9c24.4-15.4,51.3-28.9,80.1-40.2
		C444.5,28.8,474,21.8,487.9,18.9 M495.5,10.4c0,0-152.7,23.8-250.1,133.7c-45.6,51.4-71,112.5-85.1,163
		c13.7,8.9,27.7,19.5,41.5,31.7c14.8,13.1,27.9,26.8,38.8,40.3c48.6-20.1,106.5-52.7,152.3-104.3C490.2,164.8,495.5,10.4,495.5,10.4
		L495.5,10.4z"/>
</g>
<circle class="st1" cx="407" cy="111" r="34.5"/>
</svg>
